%TF.GenerationSoftware,KiCad,Pcbnew,7.0.7*%
%TF.CreationDate,2024-02-13T12:42:50+00:00*%
%TF.ProjectId,gosund-esp-adapter,676f7375-6e64-42d6-9573-702d61646170,rev?*%
%TF.SameCoordinates,Original*%
%TF.FileFunction,Copper,L2,Bot*%
%TF.FilePolarity,Positive*%
%FSLAX46Y46*%
G04 Gerber Fmt 4.6, Leading zero omitted, Abs format (unit mm)*
G04 Created by KiCad (PCBNEW 7.0.7) date 2024-02-13 12:42:50*
%MOMM*%
%LPD*%
G01*
G04 APERTURE LIST*
G04 Aperture macros list*
%AMRoundRect*
0 Rectangle with rounded corners*
0 $1 Rounding radius*
0 $2 $3 $4 $5 $6 $7 $8 $9 X,Y pos of 4 corners*
0 Add a 4 corners polygon primitive as box body*
4,1,4,$2,$3,$4,$5,$6,$7,$8,$9,$2,$3,0*
0 Add four circle primitives for the rounded corners*
1,1,$1+$1,$2,$3*
1,1,$1+$1,$4,$5*
1,1,$1+$1,$6,$7*
1,1,$1+$1,$8,$9*
0 Add four rect primitives between the rounded corners*
20,1,$1+$1,$2,$3,$4,$5,0*
20,1,$1+$1,$4,$5,$6,$7,0*
20,1,$1+$1,$6,$7,$8,$9,0*
20,1,$1+$1,$8,$9,$2,$3,0*%
G04 Aperture macros list end*
%TA.AperFunction,SMDPad,CuDef*%
%ADD10RoundRect,0.090000X-0.810000X-0.360000X0.810000X-0.360000X0.810000X0.360000X-0.810000X0.360000X0*%
%TD*%
%TA.AperFunction,SMDPad,CuDef*%
%ADD11R,1.500000X1.000000*%
%TD*%
%TA.AperFunction,SMDPad,CuDef*%
%ADD12RoundRect,0.250000X-0.450000X0.350000X-0.450000X-0.350000X0.450000X-0.350000X0.450000X0.350000X0*%
%TD*%
%TA.AperFunction,SMDPad,CuDef*%
%ADD13RoundRect,0.250000X0.450000X-0.350000X0.450000X0.350000X-0.450000X0.350000X-0.450000X-0.350000X0*%
%TD*%
%TA.AperFunction,SMDPad,CuDef*%
%ADD14RoundRect,0.381000X0.381000X-0.381000X0.381000X0.381000X-0.381000X0.381000X-0.381000X-0.381000X0*%
%TD*%
%TA.AperFunction,SMDPad,CuDef*%
%ADD15RoundRect,0.250000X-0.337500X-0.475000X0.337500X-0.475000X0.337500X0.475000X-0.337500X0.475000X0*%
%TD*%
%TA.AperFunction,SMDPad,CuDef*%
%ADD16RoundRect,0.381000X0.381000X-1.012000X0.381000X1.012000X-0.381000X1.012000X-0.381000X-1.012000X0*%
%TD*%
%TA.AperFunction,ViaPad*%
%ADD17C,0.600000*%
%TD*%
%TA.AperFunction,Conductor*%
%ADD18C,0.200000*%
%TD*%
G04 APERTURE END LIST*
D10*
%TO.P,J1,8,RX*%
%TO.N,/RX*%
X148325000Y-120662000D03*
%TO.P,J1,9,A17*%
%TO.N,/IO4*%
X148325000Y-119162000D03*
%TO.P,J1,10,A19*%
%TO.N,/IO15*%
X148325000Y-117662000D03*
%TO.P,J1,11,A4*%
%TO.N,/IO12*%
X148325000Y-116162000D03*
%TO.P,J1,12,A2*%
%TO.N,/IO2*%
X148325000Y-114662000D03*
%TO.P,J1,13,GND*%
%TO.N,GND*%
X148325000Y-113162000D03*
%TD*%
D11*
%TO.P,JP1,1,A*%
%TO.N,/ADC*%
X163068000Y-109728000D03*
%TO.P,JP1,2,C*%
%TO.N,/JP1*%
X163068000Y-111028000D03*
%TO.P,JP1,3,B*%
%TO.N,/IO16*%
X163068000Y-112328000D03*
%TD*%
D12*
%TO.P,R1,1*%
%TO.N,VCC*%
X159512000Y-109728000D03*
%TO.P,R1,2*%
%TO.N,Net-(U2-EN)*%
X159512000Y-111728000D03*
%TD*%
D13*
%TO.P,R3,1*%
%TO.N,VCC*%
X156718000Y-117332000D03*
%TO.P,R3,2*%
%TO.N,/IO0*%
X156718000Y-115332000D03*
%TD*%
D12*
%TO.P,R2,1*%
%TO.N,VCC*%
X156972000Y-109728000D03*
%TO.P,R2,2*%
%TO.N,Net-(U2-~{RST})*%
X156972000Y-111728000D03*
%TD*%
D14*
%TO.P,J3,1,Pin_1*%
%TO.N,/IO0*%
X164846000Y-114554000D03*
%TD*%
D13*
%TO.P,R4,1*%
%TO.N,/IO15*%
X160020000Y-117316000D03*
%TO.P,R4,2*%
%TO.N,GND*%
X160020000Y-115316000D03*
%TD*%
D15*
%TO.P,C1,1*%
%TO.N,VCC*%
X156718000Y-120904000D03*
%TO.P,C1,2*%
%TO.N,GND*%
X158793000Y-120904000D03*
%TD*%
D16*
%TO.P,J2,1,Pin_1*%
%TO.N,VCC*%
X156464000Y-123952000D03*
%TO.P,J2,2,Pin_2*%
%TO.N,GND*%
X159004000Y-123952000D03*
%TO.P,J2,3,Pin_3*%
%TO.N,/RX*%
X161544000Y-123952000D03*
%TO.P,J2,4,Pin_4*%
%TO.N,/TX*%
X164084000Y-123952000D03*
%TD*%
D17*
%TO.N,/TX*%
X162983911Y-123359911D03*
%TO.N,VCC*%
X155702000Y-109220000D03*
X154940000Y-123444000D03*
%TO.N,GND*%
X158793000Y-117094000D03*
X160517121Y-120678881D03*
X150876000Y-114046000D03*
%TO.N,Net-(U2-EN)*%
X160062911Y-112818911D03*
%TO.N,Net-(U2-~{RST})*%
X156456974Y-110824675D03*
%TO.N,/IO0*%
X150368000Y-119634000D03*
X155744911Y-114645500D03*
X163336833Y-114726095D03*
X165354000Y-115824000D03*
%TO.N,/IO15*%
X160528000Y-118364000D03*
X152654000Y-118443502D03*
%TO.N,/IO12*%
X149860000Y-116332000D03*
%TO.N,/IO2*%
X155194000Y-115316000D03*
%TO.N,/IO4*%
X154686000Y-119043002D03*
X160503840Y-119187663D03*
X166370000Y-115824000D03*
%TO.N,/IO5*%
X154940000Y-119888000D03*
X150876000Y-120904000D03*
X160798961Y-119930703D03*
X166878000Y-114444498D03*
%TO.N,/RX*%
X161544000Y-121666000D03*
X167640000Y-112444498D03*
X149697389Y-120875283D03*
%TO.N,/TX*%
X168402000Y-110444498D03*
%TO.N,/IO16*%
X160782000Y-113284000D03*
%TO.N,/JP1*%
X161290000Y-110744000D03*
%TO.N,/ADC*%
X161290000Y-109728000D03*
%TD*%
D18*
%TO.N,/TX*%
X162983911Y-123359911D02*
X163491911Y-123359911D01*
X163491911Y-123359911D02*
X164084000Y-123952000D01*
%TO.N,/RX*%
X161544000Y-121666000D02*
X161544000Y-123952000D01*
%TO.N,GND*%
X159018119Y-120678881D02*
X158793000Y-120904000D01*
X160517121Y-120678881D02*
X159018119Y-120678881D01*
X160517121Y-122438879D02*
X159004000Y-123952000D01*
X160517121Y-120678881D02*
X160517121Y-122438879D01*
%TO.N,VCC*%
X154940000Y-123444000D02*
X155956000Y-123444000D01*
X156972000Y-109728000D02*
X157972000Y-110728000D01*
X155702000Y-109220000D02*
X156464000Y-109220000D01*
X156718000Y-123698000D02*
X156464000Y-123952000D01*
X156464000Y-109220000D02*
X156972000Y-109728000D01*
X157972000Y-116078000D02*
X156718000Y-117332000D01*
X155956000Y-123444000D02*
X156464000Y-123952000D01*
X157972000Y-110728000D02*
X157972000Y-116078000D01*
X156718000Y-120904000D02*
X156718000Y-123698000D01*
X159512000Y-109728000D02*
X156972000Y-109728000D01*
X156718000Y-117332000D02*
X156718000Y-120904000D01*
%TO.N,GND*%
X148325000Y-113162000D02*
X149992000Y-113162000D01*
X149992000Y-113162000D02*
X150876000Y-114046000D01*
X158793000Y-123741000D02*
X158793000Y-120904000D01*
X158793000Y-116543000D02*
X160020000Y-115316000D01*
X158793000Y-120904000D02*
X158793000Y-117094000D01*
X159004000Y-123952000D02*
X158793000Y-123741000D01*
X158793000Y-117094000D02*
X158793000Y-116543000D01*
%TO.N,Net-(U2-EN)*%
X160062911Y-112278911D02*
X159512000Y-111728000D01*
X160062911Y-112818911D02*
X160062911Y-112278911D01*
%TO.N,Net-(U2-~{RST})*%
X156456974Y-111212974D02*
X156972000Y-111728000D01*
X156456974Y-110824675D02*
X156456974Y-111212974D01*
%TO.N,/IO0*%
X164846000Y-114554000D02*
X163508928Y-114554000D01*
X155744911Y-114645500D02*
X156031500Y-114645500D01*
X163508928Y-114554000D02*
X163336833Y-114726095D01*
X165354000Y-115062000D02*
X164846000Y-114554000D01*
X165354000Y-115824000D02*
X165354000Y-115062000D01*
X152312031Y-119634000D02*
X156614031Y-115332000D01*
X150368000Y-119634000D02*
X152312031Y-119634000D01*
X156614031Y-115332000D02*
X156718000Y-115332000D01*
X156031500Y-114645500D02*
X156718000Y-115332000D01*
%TO.N,/IO15*%
X148325000Y-117662000D02*
X148546543Y-117662000D01*
X160528000Y-117824000D02*
X160020000Y-117316000D01*
X160528000Y-118364000D02*
X160528000Y-117824000D01*
X149328045Y-118443502D02*
X152654000Y-118443502D01*
X148546543Y-117662000D02*
X149328045Y-118443502D01*
%TO.N,/IO12*%
X149690000Y-116162000D02*
X149860000Y-116332000D01*
X148325000Y-116162000D02*
X149690000Y-116162000D01*
%TO.N,/IO2*%
X154540000Y-114662000D02*
X155194000Y-115316000D01*
X148325000Y-114662000D02*
X154540000Y-114662000D01*
%TO.N,/IO4*%
X149047471Y-119162000D02*
X150119471Y-120234000D01*
X160503840Y-119187663D02*
X163006337Y-119187663D01*
X163006337Y-119187663D02*
X166370000Y-115824000D01*
X153495002Y-120234000D02*
X154686000Y-119043002D01*
X150119471Y-120234000D02*
X153495002Y-120234000D01*
X148325000Y-119162000D02*
X149047471Y-119162000D01*
%TO.N,/IO5*%
X166970000Y-114536498D02*
X166878000Y-114444498D01*
X166970000Y-116072529D02*
X166970000Y-114536498D01*
X150876000Y-120904000D02*
X153924000Y-120904000D01*
X160798961Y-119930703D02*
X163111826Y-119930703D01*
X153924000Y-120904000D02*
X154940000Y-119888000D01*
X163111826Y-119930703D02*
X166970000Y-116072529D01*
%TO.N,/RX*%
X148538283Y-120875283D02*
X148325000Y-120662000D01*
X149697389Y-120875283D02*
X148538283Y-120875283D01*
X167640000Y-112444498D02*
X167640000Y-119830314D01*
X167640000Y-119830314D02*
X165211314Y-122259000D01*
X163237000Y-122259000D02*
X161544000Y-123952000D01*
X165211314Y-122259000D02*
X163237000Y-122259000D01*
%TO.N,/TX*%
X168402000Y-119634000D02*
X168402000Y-110444498D01*
X164084000Y-123952000D02*
X168402000Y-119634000D01*
%TO.N,/IO16*%
X161738000Y-112328000D02*
X160782000Y-113284000D01*
X163068000Y-112328000D02*
X161738000Y-112328000D01*
%TO.N,/JP1*%
X163068000Y-111028000D02*
X161574000Y-111028000D01*
X161574000Y-111028000D02*
X161290000Y-110744000D01*
%TO.N,/ADC*%
X161290000Y-109728000D02*
X163068000Y-109728000D01*
%TD*%
M02*
