%TF.GenerationSoftware,KiCad,Pcbnew,(6.0.7)*%
%TF.CreationDate,2023-04-20T23:19:39+02:00*%
%TF.ProjectId,gosund-esp-adapter,676f7375-6e64-42d6-9573-702d61646170,rev?*%
%TF.SameCoordinates,Original*%
%TF.FileFunction,Legend,Top*%
%TF.FilePolarity,Positive*%
%FSLAX46Y46*%
G04 Gerber Fmt 4.6, Leading zero omitted, Abs format (unit mm)*
G04 Created by KiCad (PCBNEW (6.0.7)) date 2023-04-20 23:19:39*
%MOMM*%
%LPD*%
G01*
G04 APERTURE LIST*
%ADD10C,0.125000*%
%ADD11C,0.150000*%
%ADD12C,0.120000*%
G04 APERTURE END LIST*
D10*
X140808335Y-91775790D02*
X140855954Y-91775790D01*
X140903573Y-91799600D01*
X140927383Y-91823409D01*
X140951192Y-91871028D01*
X140975002Y-91966266D01*
X140975002Y-92085314D01*
X140951192Y-92180552D01*
X140927383Y-92228171D01*
X140903573Y-92251980D01*
X140855954Y-92275790D01*
X140808335Y-92275790D01*
X140760716Y-92251980D01*
X140736907Y-92228171D01*
X140713097Y-92180552D01*
X140689288Y-92085314D01*
X140689288Y-91966266D01*
X140713097Y-91871028D01*
X140736907Y-91823409D01*
X140760716Y-91799600D01*
X140808335Y-91775790D01*
X140975002Y-90751790D02*
X140689288Y-90751790D01*
X140832145Y-90751790D02*
X140832145Y-90251790D01*
X140784526Y-90323219D01*
X140736907Y-90370838D01*
X140689288Y-90394647D01*
X141141669Y-90251790D02*
X141451192Y-90251790D01*
X141284526Y-90442266D01*
X141355954Y-90442266D01*
X141403573Y-90466076D01*
X141427383Y-90489885D01*
X141451192Y-90537504D01*
X141451192Y-90656552D01*
X141427383Y-90704171D01*
X141403573Y-90727980D01*
X141355954Y-90751790D01*
X141213097Y-90751790D01*
X141165478Y-90727980D01*
X141141669Y-90704171D01*
X140641669Y-94671390D02*
X140927383Y-94671390D01*
X140784526Y-95171390D02*
X140784526Y-94671390D01*
X141046430Y-94671390D02*
X141379764Y-95171390D01*
X141379764Y-94671390D02*
X141046430Y-95171390D01*
X140590869Y-85679790D02*
X140757535Y-86179790D01*
X140924202Y-85679790D01*
X141376583Y-86132171D02*
X141352773Y-86155980D01*
X141281345Y-86179790D01*
X141233726Y-86179790D01*
X141162297Y-86155980D01*
X141114678Y-86108361D01*
X141090869Y-86060742D01*
X141067059Y-85965504D01*
X141067059Y-85894076D01*
X141090869Y-85798838D01*
X141114678Y-85751219D01*
X141162297Y-85703600D01*
X141233726Y-85679790D01*
X141281345Y-85679790D01*
X141352773Y-85703600D01*
X141376583Y-85727409D01*
X141876583Y-86132171D02*
X141852773Y-86155980D01*
X141781345Y-86179790D01*
X141733726Y-86179790D01*
X141662297Y-86155980D01*
X141614678Y-86108361D01*
X141590869Y-86060742D01*
X141567059Y-85965504D01*
X141567059Y-85894076D01*
X141590869Y-85798838D01*
X141614678Y-85751219D01*
X141662297Y-85703600D01*
X141733726Y-85679790D01*
X141781345Y-85679790D01*
X141852773Y-85703600D01*
X141876583Y-85727409D01*
X140855954Y-87305390D02*
X140855954Y-87662533D01*
X140832145Y-87733961D01*
X140784526Y-87781580D01*
X140713097Y-87805390D01*
X140665478Y-87805390D01*
X141094050Y-87805390D02*
X141094050Y-87305390D01*
X141284526Y-87305390D01*
X141332145Y-87329200D01*
X141355954Y-87353009D01*
X141379764Y-87400628D01*
X141379764Y-87472057D01*
X141355954Y-87519676D01*
X141332145Y-87543485D01*
X141284526Y-87567295D01*
X141094050Y-87567295D01*
X141855954Y-87805390D02*
X141570240Y-87805390D01*
X141713097Y-87805390D02*
X141713097Y-87305390D01*
X141665478Y-87376819D01*
X141617859Y-87424438D01*
X141570240Y-87448247D01*
X140951192Y-93198190D02*
X140713097Y-93198190D01*
X140689288Y-93436285D01*
X140713097Y-93412476D01*
X140760716Y-93388666D01*
X140879764Y-93388666D01*
X140927383Y-93412476D01*
X140951192Y-93436285D01*
X140975002Y-93483904D01*
X140975002Y-93602952D01*
X140951192Y-93650571D01*
X140927383Y-93674380D01*
X140879764Y-93698190D01*
X140760716Y-93698190D01*
X140713097Y-93674380D01*
X140689288Y-93650571D01*
X140975002Y-89176990D02*
X140689288Y-89176990D01*
X140832145Y-89176990D02*
X140832145Y-88676990D01*
X140784526Y-88748419D01*
X140736907Y-88796038D01*
X140689288Y-88819847D01*
X141403573Y-88843657D02*
X141403573Y-89176990D01*
X141284526Y-88653180D02*
X141165478Y-89010323D01*
X141475002Y-89010323D01*
D11*
%TO.C,U1*%
X146698057Y-80141771D02*
X147031390Y-80141771D01*
X147174247Y-80665580D02*
X146698057Y-80665580D01*
X146698057Y-79665580D01*
X147174247Y-79665580D01*
X147555200Y-80617961D02*
X147698057Y-80665580D01*
X147936152Y-80665580D01*
X148031390Y-80617961D01*
X148079009Y-80570342D01*
X148126628Y-80475104D01*
X148126628Y-80379866D01*
X148079009Y-80284628D01*
X148031390Y-80237009D01*
X147936152Y-80189390D01*
X147745676Y-80141771D01*
X147650438Y-80094152D01*
X147602819Y-80046533D01*
X147555200Y-79951295D01*
X147555200Y-79856057D01*
X147602819Y-79760819D01*
X147650438Y-79713200D01*
X147745676Y-79665580D01*
X147983771Y-79665580D01*
X148126628Y-79713200D01*
X148555200Y-80665580D02*
X148555200Y-79665580D01*
X148936152Y-79665580D01*
X149031390Y-79713200D01*
X149079009Y-79760819D01*
X149126628Y-79856057D01*
X149126628Y-79998914D01*
X149079009Y-80094152D01*
X149031390Y-80141771D01*
X148936152Y-80189390D01*
X148555200Y-80189390D01*
X149555200Y-80284628D02*
X150317104Y-80284628D01*
X150793295Y-80665580D02*
X150793295Y-79665580D01*
X151126628Y-80379866D01*
X151459961Y-79665580D01*
X151459961Y-80665580D01*
X151888533Y-79760819D02*
X151936152Y-79713200D01*
X152031390Y-79665580D01*
X152269485Y-79665580D01*
X152364723Y-79713200D01*
X152412342Y-79760819D01*
X152459961Y-79856057D01*
X152459961Y-79951295D01*
X152412342Y-80094152D01*
X151840914Y-80665580D01*
X152459961Y-80665580D01*
X155693000Y-82356000D02*
X155693000Y-76614000D01*
X155683000Y-96614000D02*
X143383000Y-96614000D01*
X143383000Y-85404000D02*
X143383000Y-76614000D01*
D12*
X143383000Y-96614000D02*
X143386200Y-96072000D01*
X155683000Y-96614000D02*
X155679800Y-96072000D01*
D11*
X143383000Y-76614000D02*
X155683000Y-76614000D01*
%TD*%
M02*
