M48
; DRILL file {KiCad 7.0.7} date Tue Feb 13 12:42:53 2024
; FORMAT={-:-/ absolute / inch / decimal}
; #@! TF.CreationDate,2024-02-13T12:42:53+00:00
; #@! TF.GenerationSoftware,Kicad,Pcbnew,7.0.7
; #@! TF.FileFunction,Plated,1,2,PTH
FMAT,2
INCH
; #@! TA.AperFunction,Plated,PTH,ViaDrill
T1C0.0118
%
G90
G05
T1
X5.8936Y-4.7589
X5.9Y-4.58
X5.92Y-4.71
X5.94Y-4.49
X5.94Y-4.76
X6.01Y-4.6631
X6.09Y-4.6867
X6.1Y-4.72
X6.1Y-4.86
X6.11Y-4.54
X6.13Y-4.3
X6.1317Y-4.5136
X6.1597Y-4.3632
X6.2517Y-4.61
X6.3017Y-4.4417
X6.319Y-4.6924
X6.3196Y-4.7511
X6.32Y-4.66
X6.33Y-4.46
X6.3307Y-4.7217
X6.35Y-4.32
X6.35Y-4.36
X6.36Y-4.79
X6.4167Y-4.8567
X6.4306Y-4.5168
X6.51Y-4.56
X6.55Y-4.56
X6.57Y-4.5057
X6.6Y-4.4269
X6.63Y-4.3482
T0
M30
