%TF.GenerationSoftware,KiCad,Pcbnew,(6.0.7)*%
%TF.CreationDate,2023-04-20T23:19:42+02:00*%
%TF.ProjectId,gosund-esp-adapter,676f7375-6e64-42d6-9573-702d61646170,rev?*%
%TF.SameCoordinates,Original*%
%TF.FileFunction,Drillmap*%
%TF.FilePolarity,Positive*%
%FSLAX45Y45*%
G04 Gerber Fmt 4.5, Leading zero omitted, Abs format (unit mm)*
G04 Created by KiCad (PCBNEW (6.0.7)) date 2023-04-20 23:19:42*
%MOMM*%
%LPD*%
G01*
G04 APERTURE LIST*
%ADD10C,0.100000*%
%ADD11C,0.200000*%
G04 APERTURE END LIST*
D10*
X14084300Y-9677400D02*
X15717520Y-9677400D01*
X14097000Y-7650480D02*
X14097000Y-8549000D01*
X13843000Y-8549000D02*
X13843000Y-9550400D01*
X14084300Y-9550400D02*
X13843000Y-9550400D01*
X15717520Y-9677400D02*
X15717520Y-7650480D01*
X15717520Y-7650480D02*
X14097000Y-7650480D01*
X13843000Y-8549000D02*
X14097000Y-8549000D01*
X14084300Y-9550400D02*
X14084300Y-9677400D01*
D11*
X14095619Y-9992876D02*
X14095619Y-9792876D01*
X14143238Y-9792876D01*
X14171809Y-9802400D01*
X14190857Y-9821448D01*
X14200381Y-9840495D01*
X14209905Y-9878590D01*
X14209905Y-9907162D01*
X14200381Y-9945257D01*
X14190857Y-9964305D01*
X14171809Y-9983352D01*
X14143238Y-9992876D01*
X14095619Y-9992876D01*
X14295619Y-9992876D02*
X14295619Y-9859543D01*
X14295619Y-9897638D02*
X14305143Y-9878590D01*
X14314667Y-9869067D01*
X14333714Y-9859543D01*
X14352762Y-9859543D01*
X14419428Y-9992876D02*
X14419428Y-9859543D01*
X14419428Y-9792876D02*
X14409905Y-9802400D01*
X14419428Y-9811924D01*
X14428952Y-9802400D01*
X14419428Y-9792876D01*
X14419428Y-9811924D01*
X14543238Y-9992876D02*
X14524190Y-9983352D01*
X14514667Y-9964305D01*
X14514667Y-9792876D01*
X14648000Y-9992876D02*
X14628952Y-9983352D01*
X14619428Y-9964305D01*
X14619428Y-9792876D01*
X14876571Y-9992876D02*
X14876571Y-9792876D01*
X14943238Y-9935733D01*
X15009905Y-9792876D01*
X15009905Y-9992876D01*
X15190857Y-9992876D02*
X15190857Y-9888114D01*
X15181333Y-9869067D01*
X15162286Y-9859543D01*
X15124190Y-9859543D01*
X15105143Y-9869067D01*
X15190857Y-9983352D02*
X15171809Y-9992876D01*
X15124190Y-9992876D01*
X15105143Y-9983352D01*
X15095619Y-9964305D01*
X15095619Y-9945257D01*
X15105143Y-9926210D01*
X15124190Y-9916686D01*
X15171809Y-9916686D01*
X15190857Y-9907162D01*
X15286095Y-9859543D02*
X15286095Y-10059543D01*
X15286095Y-9869067D02*
X15305143Y-9859543D01*
X15343238Y-9859543D01*
X15362286Y-9869067D01*
X15371809Y-9878590D01*
X15381333Y-9897638D01*
X15381333Y-9954781D01*
X15371809Y-9973829D01*
X15362286Y-9983352D01*
X15343238Y-9992876D01*
X15305143Y-9992876D01*
X15286095Y-9983352D01*
X15467048Y-9973829D02*
X15476571Y-9983352D01*
X15467048Y-9992876D01*
X15457524Y-9983352D01*
X15467048Y-9973829D01*
X15467048Y-9992876D01*
X15467048Y-9869067D02*
X15476571Y-9878590D01*
X15467048Y-9888114D01*
X15457524Y-9878590D01*
X15467048Y-9869067D01*
X15467048Y-9888114D01*
M02*
