%TF.GenerationSoftware,KiCad,Pcbnew,7.0.7*%
%TF.CreationDate,2024-02-13T12:42:50+00:00*%
%TF.ProjectId,gosund-esp-adapter,676f7375-6e64-42d6-9573-702d61646170,rev?*%
%TF.SameCoordinates,Original*%
%TF.FileFunction,Legend,Bot*%
%TF.FilePolarity,Positive*%
%FSLAX46Y46*%
G04 Gerber Fmt 4.6, Leading zero omitted, Abs format (unit mm)*
G04 Created by KiCad (PCBNEW 7.0.7) date 2024-02-13 12:42:50*
%MOMM*%
%LPD*%
G01*
G04 APERTURE LIST*
%ADD10C,0.150000*%
%ADD11C,0.125000*%
%ADD12C,0.010000*%
%ADD13C,0.120000*%
G04 APERTURE END LIST*
D10*
X162517847Y-117252570D02*
X161851180Y-117014475D01*
X161851180Y-117014475D02*
X162517847Y-116776380D01*
X161851180Y-115871618D02*
X161851180Y-116443046D01*
X161851180Y-116157332D02*
X162851180Y-116157332D01*
X162851180Y-116157332D02*
X162708323Y-116252570D01*
X162708323Y-116252570D02*
X162613085Y-116347808D01*
X162613085Y-116347808D02*
X162565466Y-116443046D01*
X161946419Y-115443046D02*
X161898800Y-115395427D01*
X161898800Y-115395427D02*
X161851180Y-115443046D01*
X161851180Y-115443046D02*
X161898800Y-115490665D01*
X161898800Y-115490665D02*
X161946419Y-115443046D01*
X161946419Y-115443046D02*
X161851180Y-115443046D01*
X162851180Y-114776380D02*
X162851180Y-114681142D01*
X162851180Y-114681142D02*
X162803561Y-114585904D01*
X162803561Y-114585904D02*
X162755942Y-114538285D01*
X162755942Y-114538285D02*
X162660704Y-114490666D01*
X162660704Y-114490666D02*
X162470228Y-114443047D01*
X162470228Y-114443047D02*
X162232133Y-114443047D01*
X162232133Y-114443047D02*
X162041657Y-114490666D01*
X162041657Y-114490666D02*
X161946419Y-114538285D01*
X161946419Y-114538285D02*
X161898800Y-114585904D01*
X161898800Y-114585904D02*
X161851180Y-114681142D01*
X161851180Y-114681142D02*
X161851180Y-114776380D01*
X161851180Y-114776380D02*
X161898800Y-114871618D01*
X161898800Y-114871618D02*
X161946419Y-114919237D01*
X161946419Y-114919237D02*
X162041657Y-114966856D01*
X162041657Y-114966856D02*
X162232133Y-115014475D01*
X162232133Y-115014475D02*
X162470228Y-115014475D01*
X162470228Y-115014475D02*
X162660704Y-114966856D01*
X162660704Y-114966856D02*
X162755942Y-114919237D01*
X162755942Y-114919237D02*
X162803561Y-114871618D01*
X162803561Y-114871618D02*
X162851180Y-114776380D01*
D11*
X150056463Y-116404409D02*
X150342177Y-116404409D01*
X150199320Y-116404409D02*
X150199320Y-115904409D01*
X150199320Y-115904409D02*
X150246939Y-115975838D01*
X150246939Y-115975838D02*
X150294558Y-116023457D01*
X150294558Y-116023457D02*
X150342177Y-116047266D01*
X149865987Y-115952028D02*
X149842178Y-115928219D01*
X149842178Y-115928219D02*
X149794559Y-115904409D01*
X149794559Y-115904409D02*
X149675511Y-115904409D01*
X149675511Y-115904409D02*
X149627892Y-115928219D01*
X149627892Y-115928219D02*
X149604083Y-115952028D01*
X149604083Y-115952028D02*
X149580273Y-115999647D01*
X149580273Y-115999647D02*
X149580273Y-116047266D01*
X149580273Y-116047266D02*
X149604083Y-116118695D01*
X149604083Y-116118695D02*
X149889797Y-116404409D01*
X149889797Y-116404409D02*
X149580273Y-116404409D01*
X149865987Y-114478828D02*
X149842178Y-114455019D01*
X149842178Y-114455019D02*
X149794559Y-114431209D01*
X149794559Y-114431209D02*
X149675511Y-114431209D01*
X149675511Y-114431209D02*
X149627892Y-114455019D01*
X149627892Y-114455019D02*
X149604083Y-114478828D01*
X149604083Y-114478828D02*
X149580273Y-114526447D01*
X149580273Y-114526447D02*
X149580273Y-114574066D01*
X149580273Y-114574066D02*
X149604083Y-114645495D01*
X149604083Y-114645495D02*
X149889797Y-114931209D01*
X149889797Y-114931209D02*
X149580273Y-114931209D01*
X150627893Y-112931019D02*
X150675512Y-112907209D01*
X150675512Y-112907209D02*
X150746941Y-112907209D01*
X150746941Y-112907209D02*
X150818369Y-112931019D01*
X150818369Y-112931019D02*
X150865988Y-112978638D01*
X150865988Y-112978638D02*
X150889798Y-113026257D01*
X150889798Y-113026257D02*
X150913607Y-113121495D01*
X150913607Y-113121495D02*
X150913607Y-113192923D01*
X150913607Y-113192923D02*
X150889798Y-113288161D01*
X150889798Y-113288161D02*
X150865988Y-113335780D01*
X150865988Y-113335780D02*
X150818369Y-113383400D01*
X150818369Y-113383400D02*
X150746941Y-113407209D01*
X150746941Y-113407209D02*
X150699322Y-113407209D01*
X150699322Y-113407209D02*
X150627893Y-113383400D01*
X150627893Y-113383400D02*
X150604084Y-113359590D01*
X150604084Y-113359590D02*
X150604084Y-113192923D01*
X150604084Y-113192923D02*
X150699322Y-113192923D01*
X150389798Y-113407209D02*
X150389798Y-112907209D01*
X150389798Y-112907209D02*
X150104084Y-113407209D01*
X150104084Y-113407209D02*
X150104084Y-112907209D01*
X149865988Y-113407209D02*
X149865988Y-112907209D01*
X149865988Y-112907209D02*
X149746940Y-112907209D01*
X149746940Y-112907209D02*
X149675512Y-112931019D01*
X149675512Y-112931019D02*
X149627893Y-112978638D01*
X149627893Y-112978638D02*
X149604083Y-113026257D01*
X149604083Y-113026257D02*
X149580274Y-113121495D01*
X149580274Y-113121495D02*
X149580274Y-113192923D01*
X149580274Y-113192923D02*
X149604083Y-113288161D01*
X149604083Y-113288161D02*
X149627893Y-113335780D01*
X149627893Y-113335780D02*
X149675512Y-113383400D01*
X149675512Y-113383400D02*
X149746940Y-113407209D01*
X149746940Y-113407209D02*
X149865988Y-113407209D01*
X150107264Y-120824009D02*
X150273930Y-120585914D01*
X150392978Y-120824009D02*
X150392978Y-120324009D01*
X150392978Y-120324009D02*
X150202502Y-120324009D01*
X150202502Y-120324009D02*
X150154883Y-120347819D01*
X150154883Y-120347819D02*
X150131073Y-120371628D01*
X150131073Y-120371628D02*
X150107264Y-120419247D01*
X150107264Y-120419247D02*
X150107264Y-120490676D01*
X150107264Y-120490676D02*
X150131073Y-120538295D01*
X150131073Y-120538295D02*
X150154883Y-120562104D01*
X150154883Y-120562104D02*
X150202502Y-120585914D01*
X150202502Y-120585914D02*
X150392978Y-120585914D01*
X149940597Y-120324009D02*
X149607264Y-120824009D01*
X149607264Y-120324009D02*
X149940597Y-120824009D01*
X165324809Y-111275905D02*
X164824809Y-111275905D01*
X164824809Y-111609238D02*
X164824809Y-111704476D01*
X164824809Y-111704476D02*
X164848619Y-111752095D01*
X164848619Y-111752095D02*
X164896238Y-111799714D01*
X164896238Y-111799714D02*
X164991476Y-111823524D01*
X164991476Y-111823524D02*
X165158142Y-111823524D01*
X165158142Y-111823524D02*
X165253380Y-111799714D01*
X165253380Y-111799714D02*
X165301000Y-111752095D01*
X165301000Y-111752095D02*
X165324809Y-111704476D01*
X165324809Y-111704476D02*
X165324809Y-111609238D01*
X165324809Y-111609238D02*
X165301000Y-111561619D01*
X165301000Y-111561619D02*
X165253380Y-111514000D01*
X165253380Y-111514000D02*
X165158142Y-111490191D01*
X165158142Y-111490191D02*
X164991476Y-111490191D01*
X164991476Y-111490191D02*
X164896238Y-111514000D01*
X164896238Y-111514000D02*
X164848619Y-111561619D01*
X164848619Y-111561619D02*
X164824809Y-111609238D01*
X165324809Y-112299715D02*
X165324809Y-112014001D01*
X165324809Y-112156858D02*
X164824809Y-112156858D01*
X164824809Y-112156858D02*
X164896238Y-112109239D01*
X164896238Y-112109239D02*
X164943857Y-112061620D01*
X164943857Y-112061620D02*
X164967666Y-112014001D01*
X164824809Y-112728286D02*
X164824809Y-112633048D01*
X164824809Y-112633048D02*
X164848619Y-112585429D01*
X164848619Y-112585429D02*
X164872428Y-112561619D01*
X164872428Y-112561619D02*
X164943857Y-112514000D01*
X164943857Y-112514000D02*
X165039095Y-112490191D01*
X165039095Y-112490191D02*
X165229571Y-112490191D01*
X165229571Y-112490191D02*
X165277190Y-112514000D01*
X165277190Y-112514000D02*
X165301000Y-112537810D01*
X165301000Y-112537810D02*
X165324809Y-112585429D01*
X165324809Y-112585429D02*
X165324809Y-112680667D01*
X165324809Y-112680667D02*
X165301000Y-112728286D01*
X165301000Y-112728286D02*
X165277190Y-112752095D01*
X165277190Y-112752095D02*
X165229571Y-112775905D01*
X165229571Y-112775905D02*
X165110523Y-112775905D01*
X165110523Y-112775905D02*
X165062904Y-112752095D01*
X165062904Y-112752095D02*
X165039095Y-112728286D01*
X165039095Y-112728286D02*
X165015285Y-112680667D01*
X165015285Y-112680667D02*
X165015285Y-112585429D01*
X165015285Y-112585429D02*
X165039095Y-112537810D01*
X165039095Y-112537810D02*
X165062904Y-112514000D01*
X165062904Y-112514000D02*
X165110523Y-112490191D01*
X164464951Y-121898809D02*
X164179237Y-121898809D01*
X164322094Y-122398809D02*
X164322094Y-121898809D01*
X164060190Y-121898809D02*
X163726857Y-122398809D01*
X163726857Y-121898809D02*
X164060190Y-122398809D01*
X159384952Y-121922619D02*
X159432571Y-121898809D01*
X159432571Y-121898809D02*
X159504000Y-121898809D01*
X159504000Y-121898809D02*
X159575428Y-121922619D01*
X159575428Y-121922619D02*
X159623047Y-121970238D01*
X159623047Y-121970238D02*
X159646857Y-122017857D01*
X159646857Y-122017857D02*
X159670666Y-122113095D01*
X159670666Y-122113095D02*
X159670666Y-122184523D01*
X159670666Y-122184523D02*
X159646857Y-122279761D01*
X159646857Y-122279761D02*
X159623047Y-122327380D01*
X159623047Y-122327380D02*
X159575428Y-122375000D01*
X159575428Y-122375000D02*
X159504000Y-122398809D01*
X159504000Y-122398809D02*
X159456381Y-122398809D01*
X159456381Y-122398809D02*
X159384952Y-122375000D01*
X159384952Y-122375000D02*
X159361143Y-122351190D01*
X159361143Y-122351190D02*
X159361143Y-122184523D01*
X159361143Y-122184523D02*
X159456381Y-122184523D01*
X159146857Y-122398809D02*
X159146857Y-121898809D01*
X159146857Y-121898809D02*
X158861143Y-122398809D01*
X158861143Y-122398809D02*
X158861143Y-121898809D01*
X158623047Y-122398809D02*
X158623047Y-121898809D01*
X158623047Y-121898809D02*
X158503999Y-121898809D01*
X158503999Y-121898809D02*
X158432571Y-121922619D01*
X158432571Y-121922619D02*
X158384952Y-121970238D01*
X158384952Y-121970238D02*
X158361142Y-122017857D01*
X158361142Y-122017857D02*
X158337333Y-122113095D01*
X158337333Y-122113095D02*
X158337333Y-122184523D01*
X158337333Y-122184523D02*
X158361142Y-122279761D01*
X158361142Y-122279761D02*
X158384952Y-122327380D01*
X158384952Y-122327380D02*
X158432571Y-122375000D01*
X158432571Y-122375000D02*
X158503999Y-122398809D01*
X158503999Y-122398809D02*
X158623047Y-122398809D01*
X161627333Y-122398809D02*
X161793999Y-122160714D01*
X161913047Y-122398809D02*
X161913047Y-121898809D01*
X161913047Y-121898809D02*
X161722571Y-121898809D01*
X161722571Y-121898809D02*
X161674952Y-121922619D01*
X161674952Y-121922619D02*
X161651142Y-121946428D01*
X161651142Y-121946428D02*
X161627333Y-121994047D01*
X161627333Y-121994047D02*
X161627333Y-122065476D01*
X161627333Y-122065476D02*
X161651142Y-122113095D01*
X161651142Y-122113095D02*
X161674952Y-122136904D01*
X161674952Y-122136904D02*
X161722571Y-122160714D01*
X161722571Y-122160714D02*
X161913047Y-122160714D01*
X161460666Y-121898809D02*
X161127333Y-122398809D01*
X161127333Y-121898809D02*
X161460666Y-122398809D01*
X149678692Y-119068276D02*
X149678692Y-119401609D01*
X149797740Y-118877800D02*
X149916787Y-119234942D01*
X149916787Y-119234942D02*
X149607264Y-119234942D01*
D10*
X167454990Y-122712952D02*
X167454990Y-122379619D01*
X166931180Y-122236762D02*
X166931180Y-122712952D01*
X166931180Y-122712952D02*
X167931180Y-122712952D01*
X167931180Y-122712952D02*
X167931180Y-122236762D01*
X166978800Y-121855809D02*
X166931180Y-121712952D01*
X166931180Y-121712952D02*
X166931180Y-121474857D01*
X166931180Y-121474857D02*
X166978800Y-121379619D01*
X166978800Y-121379619D02*
X167026419Y-121332000D01*
X167026419Y-121332000D02*
X167121657Y-121284381D01*
X167121657Y-121284381D02*
X167216895Y-121284381D01*
X167216895Y-121284381D02*
X167312133Y-121332000D01*
X167312133Y-121332000D02*
X167359752Y-121379619D01*
X167359752Y-121379619D02*
X167407371Y-121474857D01*
X167407371Y-121474857D02*
X167454990Y-121665333D01*
X167454990Y-121665333D02*
X167502609Y-121760571D01*
X167502609Y-121760571D02*
X167550228Y-121808190D01*
X167550228Y-121808190D02*
X167645466Y-121855809D01*
X167645466Y-121855809D02*
X167740704Y-121855809D01*
X167740704Y-121855809D02*
X167835942Y-121808190D01*
X167835942Y-121808190D02*
X167883561Y-121760571D01*
X167883561Y-121760571D02*
X167931180Y-121665333D01*
X167931180Y-121665333D02*
X167931180Y-121427238D01*
X167931180Y-121427238D02*
X167883561Y-121284381D01*
X166931180Y-120855809D02*
X167931180Y-120855809D01*
X167931180Y-120855809D02*
X167931180Y-120474857D01*
X167931180Y-120474857D02*
X167883561Y-120379619D01*
X167883561Y-120379619D02*
X167835942Y-120332000D01*
X167835942Y-120332000D02*
X167740704Y-120284381D01*
X167740704Y-120284381D02*
X167597847Y-120284381D01*
X167597847Y-120284381D02*
X167502609Y-120332000D01*
X167502609Y-120332000D02*
X167454990Y-120379619D01*
X167454990Y-120379619D02*
X167407371Y-120474857D01*
X167407371Y-120474857D02*
X167407371Y-120855809D01*
X167312133Y-119855809D02*
X167312133Y-119093905D01*
X166931180Y-118093905D02*
X166931180Y-118665333D01*
X166931180Y-118379619D02*
X167931180Y-118379619D01*
X167931180Y-118379619D02*
X167788323Y-118474857D01*
X167788323Y-118474857D02*
X167693085Y-118570095D01*
X167693085Y-118570095D02*
X167645466Y-118665333D01*
X167835942Y-117712952D02*
X167883561Y-117665333D01*
X167883561Y-117665333D02*
X167931180Y-117570095D01*
X167931180Y-117570095D02*
X167931180Y-117332000D01*
X167931180Y-117332000D02*
X167883561Y-117236762D01*
X167883561Y-117236762D02*
X167835942Y-117189143D01*
X167835942Y-117189143D02*
X167740704Y-117141524D01*
X167740704Y-117141524D02*
X167645466Y-117141524D01*
X167645466Y-117141524D02*
X167502609Y-117189143D01*
X167502609Y-117189143D02*
X166931180Y-117760571D01*
X166931180Y-117760571D02*
X166931180Y-117141524D01*
X167454990Y-116379619D02*
X167454990Y-116712952D01*
X166931180Y-116712952D02*
X167931180Y-116712952D01*
X167931180Y-116712952D02*
X167931180Y-116236762D01*
X167216895Y-115141523D02*
X167216895Y-114665333D01*
X166931180Y-115236761D02*
X167931180Y-114903428D01*
X167931180Y-114903428D02*
X166931180Y-114570095D01*
X166931180Y-113808190D02*
X167931180Y-113808190D01*
X166978800Y-113808190D02*
X166931180Y-113903428D01*
X166931180Y-113903428D02*
X166931180Y-114093904D01*
X166931180Y-114093904D02*
X166978800Y-114189142D01*
X166978800Y-114189142D02*
X167026419Y-114236761D01*
X167026419Y-114236761D02*
X167121657Y-114284380D01*
X167121657Y-114284380D02*
X167407371Y-114284380D01*
X167407371Y-114284380D02*
X167502609Y-114236761D01*
X167502609Y-114236761D02*
X167550228Y-114189142D01*
X167550228Y-114189142D02*
X167597847Y-114093904D01*
X167597847Y-114093904D02*
X167597847Y-113903428D01*
X167597847Y-113903428D02*
X167550228Y-113808190D01*
X166931180Y-112903428D02*
X167454990Y-112903428D01*
X167454990Y-112903428D02*
X167550228Y-112951047D01*
X167550228Y-112951047D02*
X167597847Y-113046285D01*
X167597847Y-113046285D02*
X167597847Y-113236761D01*
X167597847Y-113236761D02*
X167550228Y-113331999D01*
X166978800Y-112903428D02*
X166931180Y-112998666D01*
X166931180Y-112998666D02*
X166931180Y-113236761D01*
X166931180Y-113236761D02*
X166978800Y-113331999D01*
X166978800Y-113331999D02*
X167074038Y-113379618D01*
X167074038Y-113379618D02*
X167169276Y-113379618D01*
X167169276Y-113379618D02*
X167264514Y-113331999D01*
X167264514Y-113331999D02*
X167312133Y-113236761D01*
X167312133Y-113236761D02*
X167312133Y-112998666D01*
X167312133Y-112998666D02*
X167359752Y-112903428D01*
X167597847Y-112427237D02*
X166597847Y-112427237D01*
X167550228Y-112427237D02*
X167597847Y-112331999D01*
X167597847Y-112331999D02*
X167597847Y-112141523D01*
X167597847Y-112141523D02*
X167550228Y-112046285D01*
X167550228Y-112046285D02*
X167502609Y-111998666D01*
X167502609Y-111998666D02*
X167407371Y-111951047D01*
X167407371Y-111951047D02*
X167121657Y-111951047D01*
X167121657Y-111951047D02*
X167026419Y-111998666D01*
X167026419Y-111998666D02*
X166978800Y-112046285D01*
X166978800Y-112046285D02*
X166931180Y-112141523D01*
X166931180Y-112141523D02*
X166931180Y-112331999D01*
X166931180Y-112331999D02*
X166978800Y-112427237D01*
X167597847Y-111665332D02*
X167597847Y-111284380D01*
X167931180Y-111522475D02*
X167074038Y-111522475D01*
X167074038Y-111522475D02*
X166978800Y-111474856D01*
X166978800Y-111474856D02*
X166931180Y-111379618D01*
X166931180Y-111379618D02*
X166931180Y-111284380D01*
X166978800Y-110570094D02*
X166931180Y-110665332D01*
X166931180Y-110665332D02*
X166931180Y-110855808D01*
X166931180Y-110855808D02*
X166978800Y-110951046D01*
X166978800Y-110951046D02*
X167074038Y-110998665D01*
X167074038Y-110998665D02*
X167454990Y-110998665D01*
X167454990Y-110998665D02*
X167550228Y-110951046D01*
X167550228Y-110951046D02*
X167597847Y-110855808D01*
X167597847Y-110855808D02*
X167597847Y-110665332D01*
X167597847Y-110665332D02*
X167550228Y-110570094D01*
X167550228Y-110570094D02*
X167454990Y-110522475D01*
X167454990Y-110522475D02*
X167359752Y-110522475D01*
X167359752Y-110522475D02*
X167264514Y-110998665D01*
X166931180Y-110093903D02*
X167597847Y-110093903D01*
X167407371Y-110093903D02*
X167502609Y-110046284D01*
X167502609Y-110046284D02*
X167550228Y-109998665D01*
X167550228Y-109998665D02*
X167597847Y-109903427D01*
X167597847Y-109903427D02*
X167597847Y-109808189D01*
D11*
X165181952Y-109108953D02*
X165181952Y-109347048D01*
X165324809Y-109061334D02*
X164824809Y-109228000D01*
X164824809Y-109228000D02*
X165324809Y-109394667D01*
X165324809Y-109561333D02*
X164824809Y-109561333D01*
X164824809Y-109561333D02*
X164824809Y-109680381D01*
X164824809Y-109680381D02*
X164848619Y-109751809D01*
X164848619Y-109751809D02*
X164896238Y-109799428D01*
X164896238Y-109799428D02*
X164943857Y-109823238D01*
X164943857Y-109823238D02*
X165039095Y-109847047D01*
X165039095Y-109847047D02*
X165110523Y-109847047D01*
X165110523Y-109847047D02*
X165205761Y-109823238D01*
X165205761Y-109823238D02*
X165253380Y-109799428D01*
X165253380Y-109799428D02*
X165301000Y-109751809D01*
X165301000Y-109751809D02*
X165324809Y-109680381D01*
X165324809Y-109680381D02*
X165324809Y-109561333D01*
X165277190Y-110347047D02*
X165301000Y-110323238D01*
X165301000Y-110323238D02*
X165324809Y-110251809D01*
X165324809Y-110251809D02*
X165324809Y-110204190D01*
X165324809Y-110204190D02*
X165301000Y-110132762D01*
X165301000Y-110132762D02*
X165253380Y-110085143D01*
X165253380Y-110085143D02*
X165205761Y-110061333D01*
X165205761Y-110061333D02*
X165110523Y-110037524D01*
X165110523Y-110037524D02*
X165039095Y-110037524D01*
X165039095Y-110037524D02*
X164943857Y-110061333D01*
X164943857Y-110061333D02*
X164896238Y-110085143D01*
X164896238Y-110085143D02*
X164848619Y-110132762D01*
X164848619Y-110132762D02*
X164824809Y-110204190D01*
X164824809Y-110204190D02*
X164824809Y-110251809D01*
X164824809Y-110251809D02*
X164848619Y-110323238D01*
X164848619Y-110323238D02*
X164872428Y-110347047D01*
X165599999Y-113508809D02*
X165599999Y-113008809D01*
X165266666Y-113008809D02*
X165171428Y-113008809D01*
X165171428Y-113008809D02*
X165123809Y-113032619D01*
X165123809Y-113032619D02*
X165076190Y-113080238D01*
X165076190Y-113080238D02*
X165052380Y-113175476D01*
X165052380Y-113175476D02*
X165052380Y-113342142D01*
X165052380Y-113342142D02*
X165076190Y-113437380D01*
X165076190Y-113437380D02*
X165123809Y-113485000D01*
X165123809Y-113485000D02*
X165171428Y-113508809D01*
X165171428Y-113508809D02*
X165266666Y-113508809D01*
X165266666Y-113508809D02*
X165314285Y-113485000D01*
X165314285Y-113485000D02*
X165361904Y-113437380D01*
X165361904Y-113437380D02*
X165385713Y-113342142D01*
X165385713Y-113342142D02*
X165385713Y-113175476D01*
X165385713Y-113175476D02*
X165361904Y-113080238D01*
X165361904Y-113080238D02*
X165314285Y-113032619D01*
X165314285Y-113032619D02*
X165266666Y-113008809D01*
X164742856Y-113008809D02*
X164695237Y-113008809D01*
X164695237Y-113008809D02*
X164647618Y-113032619D01*
X164647618Y-113032619D02*
X164623808Y-113056428D01*
X164623808Y-113056428D02*
X164599999Y-113104047D01*
X164599999Y-113104047D02*
X164576189Y-113199285D01*
X164576189Y-113199285D02*
X164576189Y-113318333D01*
X164576189Y-113318333D02*
X164599999Y-113413571D01*
X164599999Y-113413571D02*
X164623808Y-113461190D01*
X164623808Y-113461190D02*
X164647618Y-113485000D01*
X164647618Y-113485000D02*
X164695237Y-113508809D01*
X164695237Y-113508809D02*
X164742856Y-113508809D01*
X164742856Y-113508809D02*
X164790475Y-113485000D01*
X164790475Y-113485000D02*
X164814284Y-113461190D01*
X164814284Y-113461190D02*
X164838094Y-113413571D01*
X164838094Y-113413571D02*
X164861903Y-113318333D01*
X164861903Y-113318333D02*
X164861903Y-113199285D01*
X164861903Y-113199285D02*
X164838094Y-113104047D01*
X164838094Y-113104047D02*
X164814284Y-113056428D01*
X164814284Y-113056428D02*
X164790475Y-113032619D01*
X164790475Y-113032619D02*
X164742856Y-113008809D01*
X157130665Y-121898809D02*
X156963999Y-122398809D01*
X156963999Y-122398809D02*
X156797332Y-121898809D01*
X156344952Y-122351190D02*
X156368761Y-122375000D01*
X156368761Y-122375000D02*
X156440190Y-122398809D01*
X156440190Y-122398809D02*
X156487809Y-122398809D01*
X156487809Y-122398809D02*
X156559237Y-122375000D01*
X156559237Y-122375000D02*
X156606856Y-122327380D01*
X156606856Y-122327380D02*
X156630666Y-122279761D01*
X156630666Y-122279761D02*
X156654475Y-122184523D01*
X156654475Y-122184523D02*
X156654475Y-122113095D01*
X156654475Y-122113095D02*
X156630666Y-122017857D01*
X156630666Y-122017857D02*
X156606856Y-121970238D01*
X156606856Y-121970238D02*
X156559237Y-121922619D01*
X156559237Y-121922619D02*
X156487809Y-121898809D01*
X156487809Y-121898809D02*
X156440190Y-121898809D01*
X156440190Y-121898809D02*
X156368761Y-121922619D01*
X156368761Y-121922619D02*
X156344952Y-121946428D01*
X155844952Y-122351190D02*
X155868761Y-122375000D01*
X155868761Y-122375000D02*
X155940190Y-122398809D01*
X155940190Y-122398809D02*
X155987809Y-122398809D01*
X155987809Y-122398809D02*
X156059237Y-122375000D01*
X156059237Y-122375000D02*
X156106856Y-122327380D01*
X156106856Y-122327380D02*
X156130666Y-122279761D01*
X156130666Y-122279761D02*
X156154475Y-122184523D01*
X156154475Y-122184523D02*
X156154475Y-122113095D01*
X156154475Y-122113095D02*
X156130666Y-122017857D01*
X156130666Y-122017857D02*
X156106856Y-121970238D01*
X156106856Y-121970238D02*
X156059237Y-121922619D01*
X156059237Y-121922619D02*
X155987809Y-121898809D01*
X155987809Y-121898809D02*
X155940190Y-121898809D01*
X155940190Y-121898809D02*
X155868761Y-121922619D01*
X155868761Y-121922619D02*
X155844952Y-121946428D01*
X150107263Y-117877609D02*
X150392977Y-117877609D01*
X150250120Y-117877609D02*
X150250120Y-117377609D01*
X150250120Y-117377609D02*
X150297739Y-117449038D01*
X150297739Y-117449038D02*
X150345358Y-117496657D01*
X150345358Y-117496657D02*
X150392977Y-117520466D01*
X149654883Y-117377609D02*
X149892978Y-117377609D01*
X149892978Y-117377609D02*
X149916787Y-117615704D01*
X149916787Y-117615704D02*
X149892978Y-117591895D01*
X149892978Y-117591895D02*
X149845359Y-117568085D01*
X149845359Y-117568085D02*
X149726311Y-117568085D01*
X149726311Y-117568085D02*
X149678692Y-117591895D01*
X149678692Y-117591895D02*
X149654883Y-117615704D01*
X149654883Y-117615704D02*
X149631073Y-117663323D01*
X149631073Y-117663323D02*
X149631073Y-117782371D01*
X149631073Y-117782371D02*
X149654883Y-117829990D01*
X149654883Y-117829990D02*
X149678692Y-117853800D01*
X149678692Y-117853800D02*
X149726311Y-117877609D01*
X149726311Y-117877609D02*
X149845359Y-117877609D01*
X149845359Y-117877609D02*
X149892978Y-117853800D01*
X149892978Y-117853800D02*
X149916787Y-117829990D01*
X160961071Y-110527999D02*
X161389642Y-110527999D01*
X161389642Y-110527999D02*
X161475357Y-110499428D01*
X161475357Y-110499428D02*
X161532500Y-110442285D01*
X161532500Y-110442285D02*
X161561071Y-110356571D01*
X161561071Y-110356571D02*
X161561071Y-110299428D01*
X161561071Y-110813714D02*
X160961071Y-110813714D01*
X160961071Y-110813714D02*
X160961071Y-111042285D01*
X160961071Y-111042285D02*
X160989642Y-111099428D01*
X160989642Y-111099428D02*
X161018214Y-111127999D01*
X161018214Y-111127999D02*
X161075357Y-111156571D01*
X161075357Y-111156571D02*
X161161071Y-111156571D01*
X161161071Y-111156571D02*
X161218214Y-111127999D01*
X161218214Y-111127999D02*
X161246785Y-111099428D01*
X161246785Y-111099428D02*
X161275357Y-111042285D01*
X161275357Y-111042285D02*
X161275357Y-110813714D01*
X161561071Y-111727999D02*
X161561071Y-111385142D01*
X161561071Y-111556571D02*
X160961071Y-111556571D01*
X160961071Y-111556571D02*
X161046785Y-111499428D01*
X161046785Y-111499428D02*
X161103928Y-111442285D01*
X161103928Y-111442285D02*
X161132500Y-111385142D01*
X159595333Y-108650809D02*
X159761999Y-108412714D01*
X159881047Y-108650809D02*
X159881047Y-108150809D01*
X159881047Y-108150809D02*
X159690571Y-108150809D01*
X159690571Y-108150809D02*
X159642952Y-108174619D01*
X159642952Y-108174619D02*
X159619142Y-108198428D01*
X159619142Y-108198428D02*
X159595333Y-108246047D01*
X159595333Y-108246047D02*
X159595333Y-108317476D01*
X159595333Y-108317476D02*
X159619142Y-108365095D01*
X159619142Y-108365095D02*
X159642952Y-108388904D01*
X159642952Y-108388904D02*
X159690571Y-108412714D01*
X159690571Y-108412714D02*
X159881047Y-108412714D01*
X159119142Y-108650809D02*
X159404856Y-108650809D01*
X159261999Y-108650809D02*
X159261999Y-108150809D01*
X159261999Y-108150809D02*
X159309618Y-108222238D01*
X159309618Y-108222238D02*
X159357237Y-108269857D01*
X159357237Y-108269857D02*
X159404856Y-108293666D01*
X156801333Y-114372409D02*
X156967999Y-114134314D01*
X157087047Y-114372409D02*
X157087047Y-113872409D01*
X157087047Y-113872409D02*
X156896571Y-113872409D01*
X156896571Y-113872409D02*
X156848952Y-113896219D01*
X156848952Y-113896219D02*
X156825142Y-113920028D01*
X156825142Y-113920028D02*
X156801333Y-113967647D01*
X156801333Y-113967647D02*
X156801333Y-114039076D01*
X156801333Y-114039076D02*
X156825142Y-114086695D01*
X156825142Y-114086695D02*
X156848952Y-114110504D01*
X156848952Y-114110504D02*
X156896571Y-114134314D01*
X156896571Y-114134314D02*
X157087047Y-114134314D01*
X156634666Y-113872409D02*
X156325142Y-113872409D01*
X156325142Y-113872409D02*
X156491809Y-114062885D01*
X156491809Y-114062885D02*
X156420380Y-114062885D01*
X156420380Y-114062885D02*
X156372761Y-114086695D01*
X156372761Y-114086695D02*
X156348952Y-114110504D01*
X156348952Y-114110504D02*
X156325142Y-114158123D01*
X156325142Y-114158123D02*
X156325142Y-114277171D01*
X156325142Y-114277171D02*
X156348952Y-114324790D01*
X156348952Y-114324790D02*
X156372761Y-114348600D01*
X156372761Y-114348600D02*
X156420380Y-114372409D01*
X156420380Y-114372409D02*
X156563237Y-114372409D01*
X156563237Y-114372409D02*
X156610856Y-114348600D01*
X156610856Y-114348600D02*
X156634666Y-114324790D01*
X157055333Y-108650809D02*
X157221999Y-108412714D01*
X157341047Y-108650809D02*
X157341047Y-108150809D01*
X157341047Y-108150809D02*
X157150571Y-108150809D01*
X157150571Y-108150809D02*
X157102952Y-108174619D01*
X157102952Y-108174619D02*
X157079142Y-108198428D01*
X157079142Y-108198428D02*
X157055333Y-108246047D01*
X157055333Y-108246047D02*
X157055333Y-108317476D01*
X157055333Y-108317476D02*
X157079142Y-108365095D01*
X157079142Y-108365095D02*
X157102952Y-108388904D01*
X157102952Y-108388904D02*
X157150571Y-108412714D01*
X157150571Y-108412714D02*
X157341047Y-108412714D01*
X156864856Y-108198428D02*
X156841047Y-108174619D01*
X156841047Y-108174619D02*
X156793428Y-108150809D01*
X156793428Y-108150809D02*
X156674380Y-108150809D01*
X156674380Y-108150809D02*
X156626761Y-108174619D01*
X156626761Y-108174619D02*
X156602952Y-108198428D01*
X156602952Y-108198428D02*
X156579142Y-108246047D01*
X156579142Y-108246047D02*
X156579142Y-108293666D01*
X156579142Y-108293666D02*
X156602952Y-108365095D01*
X156602952Y-108365095D02*
X156888666Y-108650809D01*
X156888666Y-108650809D02*
X156579142Y-108650809D01*
X160103333Y-118699809D02*
X160269999Y-118461714D01*
X160389047Y-118699809D02*
X160389047Y-118199809D01*
X160389047Y-118199809D02*
X160198571Y-118199809D01*
X160198571Y-118199809D02*
X160150952Y-118223619D01*
X160150952Y-118223619D02*
X160127142Y-118247428D01*
X160127142Y-118247428D02*
X160103333Y-118295047D01*
X160103333Y-118295047D02*
X160103333Y-118366476D01*
X160103333Y-118366476D02*
X160127142Y-118414095D01*
X160127142Y-118414095D02*
X160150952Y-118437904D01*
X160150952Y-118437904D02*
X160198571Y-118461714D01*
X160198571Y-118461714D02*
X160389047Y-118461714D01*
X159674761Y-118366476D02*
X159674761Y-118699809D01*
X159793809Y-118176000D02*
X159912856Y-118533142D01*
X159912856Y-118533142D02*
X159603333Y-118533142D01*
X155646690Y-120820666D02*
X155670500Y-120796857D01*
X155670500Y-120796857D02*
X155694309Y-120725428D01*
X155694309Y-120725428D02*
X155694309Y-120677809D01*
X155694309Y-120677809D02*
X155670500Y-120606381D01*
X155670500Y-120606381D02*
X155622880Y-120558762D01*
X155622880Y-120558762D02*
X155575261Y-120534952D01*
X155575261Y-120534952D02*
X155480023Y-120511143D01*
X155480023Y-120511143D02*
X155408595Y-120511143D01*
X155408595Y-120511143D02*
X155313357Y-120534952D01*
X155313357Y-120534952D02*
X155265738Y-120558762D01*
X155265738Y-120558762D02*
X155218119Y-120606381D01*
X155218119Y-120606381D02*
X155194309Y-120677809D01*
X155194309Y-120677809D02*
X155194309Y-120725428D01*
X155194309Y-120725428D02*
X155218119Y-120796857D01*
X155218119Y-120796857D02*
X155241928Y-120820666D01*
X155694309Y-121296857D02*
X155694309Y-121011143D01*
X155694309Y-121154000D02*
X155194309Y-121154000D01*
X155194309Y-121154000D02*
X155265738Y-121106381D01*
X155265738Y-121106381D02*
X155313357Y-121058762D01*
X155313357Y-121058762D02*
X155337166Y-121011143D01*
%TO.C,G\u002A\u002A\u002A*%
D12*
X160600488Y-119150957D02*
X160589462Y-119211277D01*
X160568055Y-119296646D01*
X160541528Y-119414499D01*
X160515810Y-119611121D01*
X160506672Y-119816385D01*
X160514762Y-120009637D01*
X160540725Y-120170222D01*
X160564632Y-120263939D01*
X160588313Y-120357168D01*
X160603433Y-120417167D01*
X160605688Y-120426908D01*
X160602828Y-120469734D01*
X160560506Y-120480667D01*
X160514883Y-120469044D01*
X160476518Y-120427730D01*
X160440880Y-120347992D01*
X160402659Y-120221096D01*
X160383021Y-120133834D01*
X160361731Y-119902231D01*
X160378469Y-119665101D01*
X160431190Y-119439812D01*
X160517845Y-119243729D01*
X160544703Y-119199877D01*
X160581218Y-119147934D01*
X160600005Y-119132153D01*
X160600488Y-119150957D01*
G36*
X160600488Y-119150957D02*
G01*
X160589462Y-119211277D01*
X160568055Y-119296646D01*
X160541528Y-119414499D01*
X160515810Y-119611121D01*
X160506672Y-119816385D01*
X160514762Y-120009637D01*
X160540725Y-120170222D01*
X160564632Y-120263939D01*
X160588313Y-120357168D01*
X160603433Y-120417167D01*
X160605688Y-120426908D01*
X160602828Y-120469734D01*
X160560506Y-120480667D01*
X160514883Y-120469044D01*
X160476518Y-120427730D01*
X160440880Y-120347992D01*
X160402659Y-120221096D01*
X160383021Y-120133834D01*
X160361731Y-119902231D01*
X160378469Y-119665101D01*
X160431190Y-119439812D01*
X160517845Y-119243729D01*
X160544703Y-119199877D01*
X160581218Y-119147934D01*
X160600005Y-119132153D01*
X160600488Y-119150957D01*
G37*
X160855851Y-119154222D02*
X160831276Y-119261434D01*
X160778330Y-119569969D01*
X160761142Y-119845702D01*
X160779556Y-120096734D01*
X160833419Y-120331170D01*
X160858090Y-120418345D01*
X160872836Y-120488899D01*
X160872701Y-120521670D01*
X160853121Y-120535352D01*
X160802103Y-120530414D01*
X160747871Y-120478692D01*
X160695564Y-120386251D01*
X160650322Y-120259161D01*
X160635364Y-120185186D01*
X160622807Y-120039452D01*
X160621931Y-119870951D01*
X160631999Y-119699110D01*
X160652274Y-119543353D01*
X160682021Y-119423105D01*
X160692921Y-119394254D01*
X160729003Y-119313066D01*
X160769482Y-119236027D01*
X160808382Y-119172380D01*
X160839727Y-119131368D01*
X160857542Y-119122234D01*
X160855851Y-119154222D01*
G36*
X160855851Y-119154222D02*
G01*
X160831276Y-119261434D01*
X160778330Y-119569969D01*
X160761142Y-119845702D01*
X160779556Y-120096734D01*
X160833419Y-120331170D01*
X160858090Y-120418345D01*
X160872836Y-120488899D01*
X160872701Y-120521670D01*
X160853121Y-120535352D01*
X160802103Y-120530414D01*
X160747871Y-120478692D01*
X160695564Y-120386251D01*
X160650322Y-120259161D01*
X160635364Y-120185186D01*
X160622807Y-120039452D01*
X160621931Y-119870951D01*
X160631999Y-119699110D01*
X160652274Y-119543353D01*
X160682021Y-119423105D01*
X160692921Y-119394254D01*
X160729003Y-119313066D01*
X160769482Y-119236027D01*
X160808382Y-119172380D01*
X160839727Y-119131368D01*
X160857542Y-119122234D01*
X160855851Y-119154222D01*
G37*
X161142536Y-119101849D02*
X161139243Y-119111958D01*
X161123643Y-119172823D01*
X161102021Y-119267949D01*
X161078012Y-119381579D01*
X161072096Y-119412276D01*
X161046732Y-119614478D01*
X161038883Y-119832079D01*
X161047930Y-120047630D01*
X161073253Y-120243677D01*
X161114233Y-120402772D01*
X161144411Y-120499546D01*
X161149432Y-120563497D01*
X161123710Y-120588534D01*
X161065800Y-120579945D01*
X161028590Y-120550437D01*
X160980801Y-120472808D01*
X160934374Y-120359398D01*
X160894525Y-120221132D01*
X160873377Y-120086685D01*
X160870134Y-119872687D01*
X160895398Y-119647003D01*
X160946596Y-119429575D01*
X161021151Y-119240346D01*
X161023724Y-119235308D01*
X161064700Y-119163474D01*
X161104357Y-119105896D01*
X161135407Y-119070890D01*
X161150562Y-119066770D01*
X161142536Y-119101849D01*
G36*
X161142536Y-119101849D02*
G01*
X161139243Y-119111958D01*
X161123643Y-119172823D01*
X161102021Y-119267949D01*
X161078012Y-119381579D01*
X161072096Y-119412276D01*
X161046732Y-119614478D01*
X161038883Y-119832079D01*
X161047930Y-120047630D01*
X161073253Y-120243677D01*
X161114233Y-120402772D01*
X161144411Y-120499546D01*
X161149432Y-120563497D01*
X161123710Y-120588534D01*
X161065800Y-120579945D01*
X161028590Y-120550437D01*
X160980801Y-120472808D01*
X160934374Y-120359398D01*
X160894525Y-120221132D01*
X160873377Y-120086685D01*
X160870134Y-119872687D01*
X160895398Y-119647003D01*
X160946596Y-119429575D01*
X161021151Y-119240346D01*
X161023724Y-119235308D01*
X161064700Y-119163474D01*
X161104357Y-119105896D01*
X161135407Y-119070890D01*
X161150562Y-119066770D01*
X161142536Y-119101849D01*
G37*
X161217395Y-120000889D02*
X161223087Y-120026197D01*
X161262156Y-120179659D01*
X161301539Y-120291120D01*
X161346499Y-120373011D01*
X161402295Y-120437765D01*
X161434565Y-120466371D01*
X161480477Y-120494840D01*
X161540497Y-120513937D01*
X161628716Y-120527707D01*
X161759222Y-120540193D01*
X161915575Y-120555578D01*
X162212690Y-120600501D01*
X162466106Y-120663576D01*
X162683088Y-120746844D01*
X162870903Y-120852344D01*
X162880310Y-120858644D01*
X162961009Y-120914356D01*
X163018112Y-120956709D01*
X163039778Y-120976967D01*
X163035029Y-120976940D01*
X162993501Y-120960058D01*
X162918430Y-120924170D01*
X162821056Y-120874541D01*
X162640611Y-120794241D01*
X162416343Y-120729568D01*
X162162733Y-120691939D01*
X161868556Y-120679050D01*
X161684023Y-120673580D01*
X161527190Y-120654503D01*
X161410409Y-120617920D01*
X161325567Y-120559891D01*
X161264551Y-120476477D01*
X161219245Y-120363737D01*
X161201786Y-120285319D01*
X161187136Y-120165634D01*
X161181891Y-120043222D01*
X161182895Y-119845667D01*
X161217395Y-120000889D01*
G36*
X161217395Y-120000889D02*
G01*
X161223087Y-120026197D01*
X161262156Y-120179659D01*
X161301539Y-120291120D01*
X161346499Y-120373011D01*
X161402295Y-120437765D01*
X161434565Y-120466371D01*
X161480477Y-120494840D01*
X161540497Y-120513937D01*
X161628716Y-120527707D01*
X161759222Y-120540193D01*
X161915575Y-120555578D01*
X162212690Y-120600501D01*
X162466106Y-120663576D01*
X162683088Y-120746844D01*
X162870903Y-120852344D01*
X162880310Y-120858644D01*
X162961009Y-120914356D01*
X163018112Y-120956709D01*
X163039778Y-120976967D01*
X163035029Y-120976940D01*
X162993501Y-120960058D01*
X162918430Y-120924170D01*
X162821056Y-120874541D01*
X162640611Y-120794241D01*
X162416343Y-120729568D01*
X162162733Y-120691939D01*
X161868556Y-120679050D01*
X161684023Y-120673580D01*
X161527190Y-120654503D01*
X161410409Y-120617920D01*
X161325567Y-120559891D01*
X161264551Y-120476477D01*
X161219245Y-120363737D01*
X161201786Y-120285319D01*
X161187136Y-120165634D01*
X161181891Y-120043222D01*
X161182895Y-119845667D01*
X161217395Y-120000889D01*
G37*
X163080029Y-118591681D02*
X163039806Y-118625462D01*
X162967913Y-118678086D01*
X162876947Y-118740229D01*
X162765763Y-118807217D01*
X162548199Y-118904006D01*
X162300001Y-118972490D01*
X162010378Y-119016104D01*
X161941049Y-119023283D01*
X161806686Y-119037401D01*
X161689622Y-119049950D01*
X161609285Y-119058858D01*
X161593018Y-119061216D01*
X161486770Y-119092171D01*
X161390563Y-119140722D01*
X161345625Y-119169246D01*
X161301212Y-119188402D01*
X161296333Y-119173939D01*
X161330436Y-119129500D01*
X161402971Y-119058729D01*
X161414467Y-119048391D01*
X161476496Y-118997694D01*
X161531948Y-118970204D01*
X161601818Y-118958877D01*
X161707100Y-118956667D01*
X161822113Y-118954845D01*
X162148213Y-118928408D01*
X162445161Y-118871797D01*
X162705844Y-118786662D01*
X162923146Y-118674652D01*
X162943286Y-118661741D01*
X163020329Y-118614710D01*
X163070480Y-118588044D01*
X163083698Y-118587211D01*
X163080029Y-118591681D01*
G36*
X163080029Y-118591681D02*
G01*
X163039806Y-118625462D01*
X162967913Y-118678086D01*
X162876947Y-118740229D01*
X162765763Y-118807217D01*
X162548199Y-118904006D01*
X162300001Y-118972490D01*
X162010378Y-119016104D01*
X161941049Y-119023283D01*
X161806686Y-119037401D01*
X161689622Y-119049950D01*
X161609285Y-119058858D01*
X161593018Y-119061216D01*
X161486770Y-119092171D01*
X161390563Y-119140722D01*
X161345625Y-119169246D01*
X161301212Y-119188402D01*
X161296333Y-119173939D01*
X161330436Y-119129500D01*
X161402971Y-119058729D01*
X161414467Y-119048391D01*
X161476496Y-118997694D01*
X161531948Y-118970204D01*
X161601818Y-118958877D01*
X161707100Y-118956667D01*
X161822113Y-118954845D01*
X162148213Y-118928408D01*
X162445161Y-118871797D01*
X162705844Y-118786662D01*
X162923146Y-118674652D01*
X162943286Y-118661741D01*
X163020329Y-118614710D01*
X163070480Y-118588044D01*
X163083698Y-118587211D01*
X163080029Y-118591681D01*
G37*
X165592762Y-117183055D02*
X165739315Y-117224721D01*
X165862111Y-117303889D01*
X165950794Y-117412535D01*
X165995010Y-117542636D01*
X165999361Y-117603545D01*
X165981072Y-117732525D01*
X165922363Y-117862060D01*
X165820050Y-117996760D01*
X165739245Y-118075058D01*
X165670950Y-118141233D01*
X165471879Y-118300088D01*
X165423836Y-118336344D01*
X165344508Y-118398846D01*
X165291841Y-118444073D01*
X165275347Y-118464088D01*
X165286142Y-118464815D01*
X165337231Y-118453037D01*
X165413715Y-118428123D01*
X165479985Y-118405398D01*
X165534366Y-118397188D01*
X165581221Y-118414602D01*
X165645820Y-118461248D01*
X165700584Y-118509053D01*
X165800116Y-118616356D01*
X165904459Y-118748323D01*
X166001319Y-118889007D01*
X166078403Y-119022457D01*
X166123095Y-119120002D01*
X166206460Y-119385503D01*
X166248327Y-119670339D01*
X166247169Y-119959428D01*
X166201457Y-120237688D01*
X166193014Y-120269461D01*
X166085053Y-120559872D01*
X165930587Y-120826469D01*
X165735273Y-121063331D01*
X165504769Y-121264535D01*
X165244733Y-121424159D01*
X164960822Y-121536281D01*
X164896278Y-121554425D01*
X164818347Y-121573808D01*
X164774545Y-121581333D01*
X164772105Y-121580913D01*
X164741746Y-121551801D01*
X164697296Y-121485914D01*
X164647465Y-121395958D01*
X164638129Y-121377747D01*
X164583714Y-121282330D01*
X164542326Y-121233483D01*
X164509187Y-121225312D01*
X164470339Y-121238760D01*
X164391613Y-121266634D01*
X164295667Y-121300989D01*
X164151187Y-121340204D01*
X163944210Y-121363823D01*
X163737209Y-121355971D01*
X163553299Y-121316177D01*
X163471507Y-121283246D01*
X163417131Y-121242961D01*
X163418896Y-121204155D01*
X163476902Y-121166328D01*
X163591252Y-121128981D01*
X163640670Y-121114277D01*
X163827218Y-121029282D01*
X164004010Y-120906412D01*
X164155486Y-120757950D01*
X164266087Y-120596182D01*
X164269673Y-120589271D01*
X164285444Y-120557829D01*
X164296896Y-120527401D01*
X164304344Y-120489785D01*
X164308104Y-120436777D01*
X164308489Y-120360176D01*
X164305816Y-120251778D01*
X164300398Y-120103381D01*
X164292551Y-119906781D01*
X164273505Y-119431673D01*
X164172885Y-119450550D01*
X164146120Y-119456342D01*
X164005543Y-119503500D01*
X163837471Y-119580626D01*
X163653224Y-119680841D01*
X163464119Y-119797267D01*
X163281477Y-119923024D01*
X163116617Y-120051232D01*
X162980857Y-120175013D01*
X162957682Y-120198207D01*
X162880795Y-120270240D01*
X162819339Y-120320603D01*
X162784915Y-120339556D01*
X162783934Y-120339508D01*
X162767580Y-120312176D01*
X162763820Y-120242858D01*
X162771279Y-120143727D01*
X162788578Y-120026961D01*
X162814339Y-119904734D01*
X162847185Y-119789222D01*
X162883440Y-119691926D01*
X163013944Y-119447528D01*
X163187676Y-119235308D01*
X163400347Y-119058422D01*
X163647671Y-118920029D01*
X163925360Y-118823286D01*
X164229128Y-118771352D01*
X164444810Y-118751877D01*
X164522678Y-118550883D01*
X164576301Y-118417151D01*
X164702884Y-118140447D01*
X164842061Y-117894074D01*
X164997712Y-117669984D01*
X165641098Y-117669984D01*
X165680922Y-117716852D01*
X165681218Y-117717097D01*
X165739245Y-117734896D01*
X165795413Y-117709416D01*
X165828425Y-117650268D01*
X165825455Y-117616084D01*
X165789211Y-117577810D01*
X165733611Y-117566131D01*
X165680516Y-117589961D01*
X165650655Y-117624507D01*
X165641098Y-117669984D01*
X164997712Y-117669984D01*
X165004741Y-117659864D01*
X165201830Y-117419649D01*
X165247196Y-117367966D01*
X165326978Y-117280070D01*
X165384737Y-117224597D01*
X165430413Y-117194143D01*
X165473945Y-117181302D01*
X165525273Y-117178667D01*
X165592762Y-117183055D01*
G36*
X165592762Y-117183055D02*
G01*
X165739315Y-117224721D01*
X165862111Y-117303889D01*
X165950794Y-117412535D01*
X165995010Y-117542636D01*
X165999361Y-117603545D01*
X165981072Y-117732525D01*
X165922363Y-117862060D01*
X165820050Y-117996760D01*
X165739245Y-118075058D01*
X165670950Y-118141233D01*
X165471879Y-118300088D01*
X165423836Y-118336344D01*
X165344508Y-118398846D01*
X165291841Y-118444073D01*
X165275347Y-118464088D01*
X165286142Y-118464815D01*
X165337231Y-118453037D01*
X165413715Y-118428123D01*
X165479985Y-118405398D01*
X165534366Y-118397188D01*
X165581221Y-118414602D01*
X165645820Y-118461248D01*
X165700584Y-118509053D01*
X165800116Y-118616356D01*
X165904459Y-118748323D01*
X166001319Y-118889007D01*
X166078403Y-119022457D01*
X166123095Y-119120002D01*
X166206460Y-119385503D01*
X166248327Y-119670339D01*
X166247169Y-119959428D01*
X166201457Y-120237688D01*
X166193014Y-120269461D01*
X166085053Y-120559872D01*
X165930587Y-120826469D01*
X165735273Y-121063331D01*
X165504769Y-121264535D01*
X165244733Y-121424159D01*
X164960822Y-121536281D01*
X164896278Y-121554425D01*
X164818347Y-121573808D01*
X164774545Y-121581333D01*
X164772105Y-121580913D01*
X164741746Y-121551801D01*
X164697296Y-121485914D01*
X164647465Y-121395958D01*
X164638129Y-121377747D01*
X164583714Y-121282330D01*
X164542326Y-121233483D01*
X164509187Y-121225312D01*
X164470339Y-121238760D01*
X164391613Y-121266634D01*
X164295667Y-121300989D01*
X164151187Y-121340204D01*
X163944210Y-121363823D01*
X163737209Y-121355971D01*
X163553299Y-121316177D01*
X163471507Y-121283246D01*
X163417131Y-121242961D01*
X163418896Y-121204155D01*
X163476902Y-121166328D01*
X163591252Y-121128981D01*
X163640670Y-121114277D01*
X163827218Y-121029282D01*
X164004010Y-120906412D01*
X164155486Y-120757950D01*
X164266087Y-120596182D01*
X164269673Y-120589271D01*
X164285444Y-120557829D01*
X164296896Y-120527401D01*
X164304344Y-120489785D01*
X164308104Y-120436777D01*
X164308489Y-120360176D01*
X164305816Y-120251778D01*
X164300398Y-120103381D01*
X164292551Y-119906781D01*
X164273505Y-119431673D01*
X164172885Y-119450550D01*
X164146120Y-119456342D01*
X164005543Y-119503500D01*
X163837471Y-119580626D01*
X163653224Y-119680841D01*
X163464119Y-119797267D01*
X163281477Y-119923024D01*
X163116617Y-120051232D01*
X162980857Y-120175013D01*
X162957682Y-120198207D01*
X162880795Y-120270240D01*
X162819339Y-120320603D01*
X162784915Y-120339556D01*
X162783934Y-120339508D01*
X162767580Y-120312176D01*
X162763820Y-120242858D01*
X162771279Y-120143727D01*
X162788578Y-120026961D01*
X162814339Y-119904734D01*
X162847185Y-119789222D01*
X162883440Y-119691926D01*
X163013944Y-119447528D01*
X163187676Y-119235308D01*
X163400347Y-119058422D01*
X163647671Y-118920029D01*
X163925360Y-118823286D01*
X164229128Y-118771352D01*
X164444810Y-118751877D01*
X164522678Y-118550883D01*
X164576301Y-118417151D01*
X164702884Y-118140447D01*
X164842061Y-117894074D01*
X164997712Y-117669984D01*
X165641098Y-117669984D01*
X165680922Y-117716852D01*
X165681218Y-117717097D01*
X165739245Y-117734896D01*
X165795413Y-117709416D01*
X165828425Y-117650268D01*
X165825455Y-117616084D01*
X165789211Y-117577810D01*
X165733611Y-117566131D01*
X165680516Y-117589961D01*
X165650655Y-117624507D01*
X165641098Y-117669984D01*
X164997712Y-117669984D01*
X165004741Y-117659864D01*
X165201830Y-117419649D01*
X165247196Y-117367966D01*
X165326978Y-117280070D01*
X165384737Y-117224597D01*
X165430413Y-117194143D01*
X165473945Y-117181302D01*
X165525273Y-117178667D01*
X165592762Y-117183055D01*
G37*
X164594588Y-118030730D02*
X164620377Y-118046500D01*
X164615837Y-118062370D01*
X164592323Y-118121722D01*
X164553274Y-118212484D01*
X164503789Y-118322576D01*
X164387046Y-118577486D01*
X164250726Y-118510021D01*
X164166693Y-118475328D01*
X164038548Y-118444715D01*
X163873425Y-118427523D01*
X163743047Y-118415779D01*
X163660351Y-118399405D01*
X163632445Y-118379053D01*
X163639170Y-118351179D01*
X163689843Y-118290233D01*
X163782704Y-118226483D01*
X163908823Y-118164653D01*
X164059269Y-118109465D01*
X164225111Y-118065642D01*
X164302404Y-118050627D01*
X164424009Y-118033355D01*
X164525268Y-118026535D01*
X164594588Y-118030730D01*
G36*
X164594588Y-118030730D02*
G01*
X164620377Y-118046500D01*
X164615837Y-118062370D01*
X164592323Y-118121722D01*
X164553274Y-118212484D01*
X164503789Y-118322576D01*
X164387046Y-118577486D01*
X164250726Y-118510021D01*
X164166693Y-118475328D01*
X164038548Y-118444715D01*
X163873425Y-118427523D01*
X163743047Y-118415779D01*
X163660351Y-118399405D01*
X163632445Y-118379053D01*
X163639170Y-118351179D01*
X163689843Y-118290233D01*
X163782704Y-118226483D01*
X163908823Y-118164653D01*
X164059269Y-118109465D01*
X164225111Y-118065642D01*
X164302404Y-118050627D01*
X164424009Y-118033355D01*
X164525268Y-118026535D01*
X164594588Y-118030730D01*
G37*
X164178611Y-119936964D02*
X164192437Y-120006903D01*
X164196457Y-120130712D01*
X164196889Y-120302869D01*
X164029784Y-120448212D01*
X164011213Y-120464204D01*
X163930492Y-120529957D01*
X163866679Y-120576129D01*
X163832229Y-120593556D01*
X163811465Y-120576896D01*
X163801993Y-120521432D01*
X163808185Y-120442928D01*
X163828486Y-120357961D01*
X163861343Y-120283111D01*
X163898700Y-120225041D01*
X163964386Y-120130534D01*
X164035090Y-120034758D01*
X164040406Y-120027833D01*
X164106385Y-119949682D01*
X164151190Y-119918641D01*
X164178611Y-119936964D01*
G36*
X164178611Y-119936964D02*
G01*
X164192437Y-120006903D01*
X164196457Y-120130712D01*
X164196889Y-120302869D01*
X164029784Y-120448212D01*
X164011213Y-120464204D01*
X163930492Y-120529957D01*
X163866679Y-120576129D01*
X163832229Y-120593556D01*
X163811465Y-120576896D01*
X163801993Y-120521432D01*
X163808185Y-120442928D01*
X163828486Y-120357961D01*
X163861343Y-120283111D01*
X163898700Y-120225041D01*
X163964386Y-120130534D01*
X164035090Y-120034758D01*
X164040406Y-120027833D01*
X164106385Y-119949682D01*
X164151190Y-119918641D01*
X164178611Y-119936964D01*
G37*
D13*
%TO.C,JP1*%
X164068000Y-108978000D02*
X162068000Y-108978000D01*
X162068000Y-108978000D02*
X162068000Y-113078000D01*
X164568000Y-109428000D02*
X164568000Y-110028000D01*
X164268000Y-109728000D02*
X164568000Y-109428000D01*
X164268000Y-109728000D02*
X164568000Y-110028000D01*
X164068000Y-113078000D02*
X164068000Y-108978000D01*
X162068000Y-113078000D02*
X164068000Y-113078000D01*
%TO.C,R1*%
X160247000Y-110500936D02*
X160247000Y-110955064D01*
X158777000Y-110500936D02*
X158777000Y-110955064D01*
%TO.C,R3*%
X155983000Y-116559064D02*
X155983000Y-116104936D01*
X157453000Y-116559064D02*
X157453000Y-116104936D01*
%TO.C,R2*%
X157707000Y-110500936D02*
X157707000Y-110955064D01*
X156237000Y-110500936D02*
X156237000Y-110955064D01*
%TO.C,R4*%
X159285000Y-116543064D02*
X159285000Y-116088936D01*
X160755000Y-116543064D02*
X160755000Y-116088936D01*
%TO.C,C1*%
X157494248Y-120169000D02*
X158016752Y-120169000D01*
X157494248Y-121639000D02*
X158016752Y-121639000D01*
%TD*%
M02*
