%TF.GenerationSoftware,KiCad,Pcbnew,(6.0.7)*%
%TF.CreationDate,2023-04-20T23:19:39+02:00*%
%TF.ProjectId,gosund-esp-adapter,676f7375-6e64-42d6-9573-702d61646170,rev?*%
%TF.SameCoordinates,Original*%
%TF.FileFunction,Copper,L2,Bot*%
%TF.FilePolarity,Positive*%
%FSLAX46Y46*%
G04 Gerber Fmt 4.6, Leading zero omitted, Abs format (unit mm)*
G04 Created by KiCad (PCBNEW (6.0.7)) date 2023-04-20 23:19:39*
%MOMM*%
%LPD*%
G01*
G04 APERTURE LIST*
G04 Aperture macros list*
%AMRoundRect*
0 Rectangle with rounded corners*
0 $1 Rounding radius*
0 $2 $3 $4 $5 $6 $7 $8 $9 X,Y pos of 4 corners*
0 Add a 4 corners polygon primitive as box body*
4,1,4,$2,$3,$4,$5,$6,$7,$8,$9,$2,$3,0*
0 Add four circle primitives for the rounded corners*
1,1,$1+$1,$2,$3*
1,1,$1+$1,$4,$5*
1,1,$1+$1,$6,$7*
1,1,$1+$1,$8,$9*
0 Add four rect primitives between the rounded corners*
20,1,$1+$1,$2,$3,$4,$5,0*
20,1,$1+$1,$4,$5,$6,$7,0*
20,1,$1+$1,$6,$7,$8,$9,0*
20,1,$1+$1,$8,$9,$2,$3,0*%
G04 Aperture macros list end*
%TA.AperFunction,SMDPad,CuDef*%
%ADD10R,1.000000X1.500000*%
%TD*%
%TA.AperFunction,SMDPad,CuDef*%
%ADD11RoundRect,0.090000X-0.810000X-0.360000X0.810000X-0.360000X0.810000X0.360000X-0.810000X0.360000X0*%
%TD*%
%TA.AperFunction,SMDPad,CuDef*%
%ADD12RoundRect,0.250000X0.450000X-0.350000X0.450000X0.350000X-0.450000X0.350000X-0.450000X-0.350000X0*%
%TD*%
%TA.AperFunction,SMDPad,CuDef*%
%ADD13RoundRect,0.381000X0.381000X-0.381000X0.381000X0.381000X-0.381000X0.381000X-0.381000X-0.381000X0*%
%TD*%
%TA.AperFunction,SMDPad,CuDef*%
%ADD14RoundRect,0.250000X-0.450000X0.350000X-0.450000X-0.350000X0.450000X-0.350000X0.450000X0.350000X0*%
%TD*%
%TA.AperFunction,SMDPad,CuDef*%
%ADD15RoundRect,0.250000X0.475000X-0.337500X0.475000X0.337500X-0.475000X0.337500X-0.475000X-0.337500X0*%
%TD*%
%TA.AperFunction,SMDPad,CuDef*%
%ADD16RoundRect,0.381000X-1.012000X-0.381000X1.012000X-0.381000X1.012000X0.381000X-1.012000X0.381000X0*%
%TD*%
%TA.AperFunction,ViaPad*%
%ADD17C,0.600000*%
%TD*%
%TA.AperFunction,Conductor*%
%ADD18C,0.200000*%
%TD*%
G04 APERTURE END LIST*
D10*
%TO.P,JP1,1,A*%
%TO.N,/ADC*%
X144750000Y-83108800D03*
%TO.P,JP1,2,C*%
%TO.N,/JP1*%
X146050000Y-83108800D03*
%TO.P,JP1,3,B*%
%TO.N,/IO16*%
X147350000Y-83108800D03*
%TD*%
D11*
%TO.P,J1,8,RX*%
%TO.N,/RX*%
X139435000Y-94246000D03*
%TO.P,J1,9,A17*%
%TO.N,/IO4*%
X139435000Y-92746000D03*
%TO.P,J1,10,A19*%
%TO.N,/IO15*%
X139435000Y-91246000D03*
%TO.P,J1,11,A4*%
%TO.N,/IO12*%
X139435000Y-89746000D03*
%TO.P,J1,12,A2*%
%TO.N,/IO2*%
X139435000Y-88246000D03*
%TO.P,J1,13,GND*%
%TO.N,GND*%
X139435000Y-86746000D03*
%TD*%
D12*
%TO.P,R1,1*%
%TO.N,VCC*%
X149098000Y-94268800D03*
%TO.P,R1,2*%
%TO.N,Net-(R1-Pad2)*%
X149098000Y-92268800D03*
%TD*%
%TO.P,R3,1*%
%TO.N,VCC*%
X149098000Y-89747600D03*
%TO.P,R3,2*%
%TO.N,/IO0*%
X149098000Y-87747600D03*
%TD*%
%TO.P,R2,1*%
%TO.N,VCC*%
X147066000Y-94268800D03*
%TO.P,R2,2*%
%TO.N,/RST*%
X147066000Y-92268800D03*
%TD*%
D13*
%TO.P,J3,1,Pin_1*%
%TO.N,/IO0*%
X149606000Y-85293200D03*
%TD*%
D14*
%TO.P,R4,1*%
%TO.N,/IO15*%
X147066000Y-87747600D03*
%TO.P,R4,2*%
%TO.N,GND*%
X147066000Y-89747600D03*
%TD*%
D15*
%TO.P,C1,1*%
%TO.N,VCC*%
X151282400Y-94306300D03*
%TO.P,C1,2*%
%TO.N,GND*%
X151282400Y-92231300D03*
%TD*%
D16*
%TO.P,J2,1,Pin_1*%
%TO.N,VCC*%
X152146000Y-82753200D03*
%TO.P,J2,2,Pin_2*%
%TO.N,GND*%
X152146000Y-85293200D03*
%TO.P,J2,3,Pin_3*%
%TO.N,/RX*%
X152146000Y-87833200D03*
%TO.P,J2,4,Pin_4*%
%TO.N,/TX*%
X152146000Y-90373200D03*
%TD*%
D17*
%TO.N,/ADC*%
X144604900Y-84672800D03*
%TO.N,/JP1*%
X145409800Y-84617000D03*
%TO.N,/IO16*%
X150234500Y-83118000D03*
%TO.N,/TX*%
X152592900Y-89103200D03*
%TO.N,/RX*%
X153912500Y-88768100D03*
X153256200Y-92425200D03*
%TO.N,/IO5*%
X153441500Y-93643400D03*
X140841800Y-94200700D03*
%TO.N,/IO4*%
X152823200Y-94254900D03*
%TO.N,/IO2*%
X150323700Y-93347300D03*
%TO.N,/IO12*%
X140836400Y-90654200D03*
%TO.N,/IO15*%
X141116500Y-92144800D03*
X145860300Y-87676800D03*
%TO.N,/IO0*%
X149098000Y-86567500D03*
%TO.N,/RST*%
X145823700Y-91133400D03*
%TO.N,Net-(R1-Pad2)*%
X144924600Y-89087100D03*
%TO.N,GND*%
X150220100Y-91169000D03*
%TO.N,VCC*%
X141219500Y-85996000D03*
X144895000Y-94545800D03*
%TD*%
D18*
%TO.N,/ADC*%
X144604900Y-84304200D02*
X144750000Y-84159100D01*
X144604900Y-84672800D02*
X144604900Y-84304200D01*
X144750000Y-83108800D02*
X144750000Y-84159100D01*
%TO.N,/JP1*%
X145867700Y-84159100D02*
X145409800Y-84617000D01*
X146050000Y-84159100D02*
X145867700Y-84159100D01*
X146050000Y-83108800D02*
X146050000Y-84159100D01*
%TO.N,/IO16*%
X147350000Y-83108800D02*
X148150300Y-83108800D01*
X148159500Y-83118000D02*
X150234500Y-83118000D01*
X148150300Y-83108800D02*
X148159500Y-83118000D01*
%TO.N,/TX*%
X152146000Y-89550100D02*
X152592900Y-89103200D01*
X152146000Y-90373200D02*
X152146000Y-89550100D01*
%TO.N,/RX*%
X152977600Y-87833200D02*
X153912500Y-88768100D01*
X152146000Y-87833200D02*
X152977600Y-87833200D01*
X140038000Y-94246000D02*
X139435000Y-94246000D01*
X141824800Y-96032800D02*
X140038000Y-94246000D01*
X152560800Y-96032800D02*
X141824800Y-96032800D01*
X154050400Y-94543200D02*
X152560800Y-96032800D01*
X154050400Y-93219400D02*
X154050400Y-94543200D01*
X153256200Y-92425200D02*
X154050400Y-93219400D01*
%TO.N,/IO5*%
X153441500Y-94517400D02*
X153441500Y-93643400D01*
X152326900Y-95632000D02*
X153441500Y-94517400D01*
X142273100Y-95632000D02*
X152326900Y-95632000D01*
X140841800Y-94200700D02*
X142273100Y-95632000D01*
%TO.N,/IO4*%
X152823200Y-94379700D02*
X152823200Y-94254900D01*
X151971300Y-95231600D02*
X152823200Y-94379700D01*
X143687200Y-95231600D02*
X151971300Y-95231600D01*
X141201600Y-92746000D02*
X143687200Y-95231600D01*
X139435000Y-92746000D02*
X141201600Y-92746000D01*
%TO.N,/IO2*%
X146556100Y-93347300D02*
X150323700Y-93347300D01*
X141454800Y-88246000D02*
X146556100Y-93347300D01*
X139435000Y-88246000D02*
X141454800Y-88246000D01*
%TO.N,/IO12*%
X139928200Y-89746000D02*
X139435000Y-89746000D01*
X140836400Y-90654200D02*
X139928200Y-89746000D01*
%TO.N,/IO15*%
X140217700Y-91246000D02*
X141116500Y-92144800D01*
X139435000Y-91246000D02*
X140217700Y-91246000D01*
X145931100Y-87747600D02*
X145860300Y-87676800D01*
X147066000Y-87747600D02*
X145931100Y-87747600D01*
%TO.N,/IO0*%
X149098000Y-87747600D02*
X149098000Y-86567500D01*
X149098000Y-85801200D02*
X149606000Y-85293200D01*
X149098000Y-86567500D02*
X149098000Y-85801200D01*
%TO.N,/RST*%
X146959100Y-92268800D02*
X145823700Y-91133400D01*
X147066000Y-92268800D02*
X146959100Y-92268800D01*
%TO.N,Net-(R1-Pad2)*%
X144924600Y-89199400D02*
X144924600Y-89087100D01*
X146645100Y-90919900D02*
X144924600Y-89199400D01*
X147672000Y-90919900D02*
X146645100Y-90919900D01*
X149020900Y-92268800D02*
X147672000Y-90919900D01*
X149098000Y-92268800D02*
X149020900Y-92268800D01*
%TO.N,GND*%
X150145800Y-90602100D02*
X150084800Y-90663100D01*
X150145800Y-87293400D02*
X150145800Y-90602100D01*
X152146000Y-85293200D02*
X150145800Y-87293400D01*
X147981500Y-90663100D02*
X147066000Y-89747600D01*
X150084800Y-90663100D02*
X147981500Y-90663100D01*
X144064400Y-86746000D02*
X147066000Y-89747600D01*
X139435000Y-86746000D02*
X144064400Y-86746000D01*
X151282400Y-92231300D02*
X150220100Y-91169000D01*
X150084800Y-91033700D02*
X150084800Y-90663100D01*
X150220100Y-91169000D02*
X150084800Y-91033700D01*
%TO.N,VCC*%
X148082000Y-86924300D02*
X147153700Y-85996000D01*
X148082000Y-88731600D02*
X148082000Y-86924300D01*
X149098000Y-89747600D02*
X148082000Y-88731600D01*
X147153700Y-85996000D02*
X141219500Y-85996000D01*
X150880400Y-84018800D02*
X152051800Y-82847400D01*
X149130900Y-84018800D02*
X150880400Y-84018800D01*
X147153700Y-85996000D02*
X149130900Y-84018800D01*
X152051800Y-82847400D02*
X152146000Y-82753200D01*
X151282400Y-94268800D02*
X149098000Y-94268800D01*
X151282400Y-94268800D02*
X151282400Y-94306300D01*
X152332600Y-93218600D02*
X151282400Y-94268800D01*
X152332600Y-92499900D02*
X152332600Y-93218600D01*
X153007600Y-91824900D02*
X152332600Y-92499900D01*
X153051400Y-91824900D02*
X153007600Y-91824900D01*
X154515500Y-90360800D02*
X153051400Y-91824900D01*
X154515500Y-85311100D02*
X154515500Y-90360800D01*
X152051800Y-82847400D02*
X154515500Y-85311100D01*
X147066000Y-94268800D02*
X149098000Y-94268800D01*
X146789000Y-94545800D02*
X144895000Y-94545800D01*
X147066000Y-94268800D02*
X146789000Y-94545800D01*
%TD*%
M02*
